<svg width="22" height="22" viewBox="0 0 22 22" fill="none" xmlns="http://www.w3.org/2000/svg">
<path fill-rule="evenodd" clip-rule="evenodd" d="M15.0979 2.00001C13.795 2 12.9551 2.15522 11.9924 2.62647C11.6359 2.80094 11.3015 3.01105 10.991 3.25618C10.6924 3.0248 10.3713 2.82433 10.0296 2.65532C9.04819 2.1699 8.16525 2 6.90909 2C3.54479 2 1.1 4.78754 1.1 8.40789C1.1 11.142 2.62445 13.7831 5.46395 16.3369C6.9544 17.6774 8.85739 19.004 10.2202 19.7097L11 20.1135L11.7798 19.7097C13.1426 19.004 15.0456 17.6774 16.536 16.3369C19.3755 13.7831 20.9 11.142 20.9 8.40789C20.9 4.82586 18.4322 2.01382 15.0979 2.00001ZM19.1 8.40793C19.1 10.5499 17.8276 12.7544 15.3324 14.9986C13.972 16.2221 12.2231 17.4449 11 18.0864C9.77698 17.4449 8.02808 16.2221 6.66769 14.9986C4.17248 12.7544 2.90004 10.5499 2.90004 8.40793C2.90004 5.73298 4.59532 3.80004 6.90913 3.80004C7.9079 3.80004 8.52336 3.91847 9.23166 4.2688C9.65005 4.47573 10.0198 4.74897 10.3399 5.09043L11.0021 5.79687L11.6583 5.08483C11.9856 4.72969 12.3609 4.45023 12.7838 4.24322C13.4713 3.90668 14.0483 3.80004 15.0942 3.80004C17.3794 3.80952 19.1 5.7701 19.1 8.40793Z" fill="black"/>
<path fill-rule="evenodd" clip-rule="evenodd" d="M15.3324 14.9986C17.8276 12.7544 19.1 10.55 19.1 8.40794C19.1 5.77012 17.3794 3.80953 15.0942 3.80006C14.0483 3.80005 13.4713 3.90669 12.7838 4.24323C12.3608 4.45024 11.9856 4.7297 11.6583 5.08484L11.0021 5.79688L10.3399 5.09044C10.0198 4.74898 9.65004 4.47574 9.23166 4.26881C8.52335 3.91848 7.90789 3.80005 6.90913 3.80005C4.59532 3.80005 2.90004 5.73299 2.90004 8.40794C2.90004 10.55 4.17248 12.7544 6.66769 14.9986C8.02808 16.2222 9.77697 17.4449 11 18.0864C12.2231 17.4449 13.972 16.2222 15.3324 14.9986Z" fill="#EB5757"/>
</svg>
